<?xml version="1.0" standalone="no"?>
<!DOCTYPE svg PUBLIC "-//W3C//DTD SVG 20010904//EN"
 "http://www.w3.org/TR/2001/REC-SVG-20010904/DTD/svg10.dtd">
<svg version="1.0" xmlns="http://www.w3.org/2000/svg"
 width="57.000000pt" height="41.000000pt" viewBox="0 0 57.000000 41.000000"
 preserveAspectRatio="xMidYMid meet">

<g transform="translate(0.000000,41.000000) scale(0.100000,-0.100000)"
fill="#000000" stroke="none">
<path d="M0 205 l0 -205 285 0 285 0 0 205 0 205 -285 0 -285 0 0 -205z m130
55 c0 -16 -6 -20 -26 -18 -40 4 -39 -16 1 -35 28 -13 35 -22 35 -45 0 -40 -17
-52 -72 -52 -45 0 -48 2 -48 26 0 21 3 25 18 19 27 -11 45 -11 49 2 2 6 -5 14
-16 18 -31 10 -51 33 -51 60 0 30 24 44 73 45 31 0 37 -3 37 -20z m90 -65 c0
-84 0 -85 -25 -85 -25 0 -25 1 -25 85 0 84 0 85 25 85 25 0 25 -1 25 -85z
m160 65 c0 -17 -5 -19 -24 -14 -27 6 -66 -24 -66 -51 0 -27 38 -56 65 -49 21
5 25 3 25 -15 0 -18 -6 -21 -41 -21 -52 0 -74 13 -87 48 -23 66 19 122 89 122
32 0 39 -3 39 -20z m160 1 c0 -15 -7 -19 -36 -18 -38 1 -54 -13 -54 -50 0 -34
27 -55 61 -48 25 6 29 3 29 -14 0 -18 -6 -21 -47 -21 -62 0 -93 28 -93 82 0
56 34 88 95 88 38 0 45 -3 45 -19z"/>
</g>
</svg>
